<svg width="512" height="512" viewBox="0 0 512 512" fill="none" xmlns="http://www.w3.org/2000/svg">
<path d="M0 0H512V512H0V0Z" fill="white"/>
<path d="M170.664 0H341.331V512H170.664V0Z" fill="#DC171D"/>
<path d="M0 170.668H512V341.335H0V170.668Z" fill="#012A87"/>
<path d="M256.008 177.777L249.415 198.067L259.56 201.363L256.008 177.777Z" fill="white"/>
<path d="M256.008 177.777L262.6 198.067L252.456 201.363L256.008 177.777Z" fill="white"/>
<path d="M276.289 192.52H254.956V203.186L276.289 192.52Z" fill="white"/>
<path d="M276.289 192.52L259.03 205.059L252.76 196.429L276.289 192.52Z" fill="white"/>
<path d="M235.711 192.52L252.97 205.059L259.24 196.429L235.711 192.52Z" fill="white"/>
<path d="M235.711 192.52H257.044V203.186L235.711 192.52Z" fill="white"/>
<path d="M268.539 216.367L261.947 196.078L251.802 199.374L268.539 216.367Z" fill="white"/>
<path d="M268.539 216.367L251.28 203.828L257.55 195.198L268.539 216.367Z" fill="white"/>
<path d="M243.461 216.371L260.72 203.832L254.45 195.202L243.461 216.371Z" fill="white"/>
<path d="M243.461 216.371L250.053 196.082L260.198 199.378L243.461 216.371Z" fill="white"/>
<path d="M369.781 224.906L363.189 245.195L373.333 248.492L369.781 224.906Z" fill="white"/>
<path d="M369.781 224.906L376.374 245.195L366.229 248.492L369.781 224.906Z" fill="white"/>
<path d="M390.062 239.648H368.729V250.315L390.062 239.648Z" fill="white"/>
<path d="M390.062 239.648L372.803 252.188L366.534 243.558L390.062 239.648Z" fill="white"/>
<path d="M349.484 239.648L366.743 252.188L373.013 243.558L349.484 239.648Z" fill="white"/>
<path d="M349.484 239.648H370.818V250.315L349.484 239.648Z" fill="white"/>
<path d="M382.312 263.496L375.72 243.207L365.576 246.503L382.312 263.496Z" fill="white"/>
<path d="M382.312 263.496L365.053 250.957L371.323 242.327L382.312 263.496Z" fill="white"/>
<path d="M357.234 263.5L374.493 250.961L368.224 242.331L357.234 263.5Z" fill="white"/>
<path d="M357.234 263.5L363.827 243.211L373.971 246.507L357.234 263.5Z" fill="white"/>
<path d="M303.133 291.555L296.54 311.844L306.685 315.14L303.133 291.555Z" fill="white"/>
<path d="M303.133 291.555L309.725 311.844L299.581 315.14L303.133 291.555Z" fill="white"/>
<path d="M323.414 306.297H302.081V316.964L323.414 306.297Z" fill="white"/>
<path d="M323.414 306.297L306.155 318.836L299.885 310.207L323.414 306.297Z" fill="white"/>
<path d="M282.836 306.297L300.095 318.836L306.365 310.207L282.836 306.297Z" fill="white"/>
<path d="M282.836 306.297H304.169V316.964L282.836 306.297Z" fill="white"/>
<path d="M315.664 330.145L309.072 309.855L298.927 313.152L315.664 330.145Z" fill="white"/>
<path d="M315.664 330.145L298.405 317.605L304.675 308.976L315.664 330.145Z" fill="white"/>
<path d="M290.586 330.148L307.845 317.609L301.575 308.98L290.586 330.148Z" fill="white"/>
<path d="M290.586 330.148L297.178 309.859L307.323 313.155L290.586 330.148Z" fill="white"/>
<path d="M142.219 224.906L148.811 245.195L138.667 248.492L142.219 224.906Z" fill="white"/>
<path d="M142.219 224.906L135.626 245.195L145.771 248.492L142.219 224.906Z" fill="white"/>
<path d="M121.938 239.648H143.271V250.315L121.938 239.648Z" fill="white"/>
<path d="M121.938 239.648L139.197 252.188L145.466 243.558L121.938 239.648Z" fill="white"/>
<path d="M162.516 239.648L145.257 252.188L138.987 243.558L162.516 239.648Z" fill="white"/>
<path d="M162.516 239.648H141.182V250.315L162.516 239.648Z" fill="white"/>
<path d="M129.688 263.496L136.28 243.207L146.424 246.503L129.688 263.496Z" fill="white"/>
<path d="M129.688 263.496L146.947 250.957L140.677 242.327L129.688 263.496Z" fill="white"/>
<path d="M154.766 263.5L137.507 250.961L143.776 242.331L154.766 263.5Z" fill="white"/>
<path d="M154.766 263.5L148.173 243.211L138.029 246.507L154.766 263.5Z" fill="white"/>
<path d="M208.867 291.555L215.46 311.844L205.315 315.14L208.867 291.555Z" fill="white"/>
<path d="M208.867 291.555L202.275 311.844L212.419 315.14L208.867 291.555Z" fill="white"/>
<path d="M188.586 306.297H209.919V316.964L188.586 306.297Z" fill="white"/>
<path d="M188.586 306.297L205.845 318.836L212.115 310.207L188.586 306.297Z" fill="white"/>
<path d="M229.164 306.297L211.905 318.836L205.635 310.207L229.164 306.297Z" fill="white"/>
<path d="M229.164 306.297H207.831V316.964L229.164 306.297Z" fill="white"/>
<path d="M196.336 330.145L202.928 309.855L213.073 313.152L196.336 330.145Z" fill="white"/>
<path d="M196.336 330.145L213.595 317.605L207.325 308.976L196.336 330.145Z" fill="white"/>
<path d="M221.414 330.148L204.155 317.609L210.425 308.98L221.414 330.148Z" fill="white"/>
<path d="M221.414 330.148L214.822 309.859L204.677 313.155L221.414 330.148Z" fill="white"/>
</svg>
