<svg width="512" height="512" viewBox="0 0 512 512" fill="none" xmlns="http://www.w3.org/2000/svg">
<g clip-path="url(#clip0_57741_82325)">
<path d="M0 0H512V512H0V0Z" fill="#244AA5"/>
<path d="M259.209 164.442C262.118 167.835 264.066 171.227 264.066 175.351C261.623 176.558 258.248 177.051 256.3 179.233C268.429 177.532 270.845 191.589 284.429 186.255C284.922 188.201 286.87 189.9 289.285 189.166L290.74 185.294C296.064 183.84 294.609 192.562 300.451 190.862C303.362 193.29 301.414 197.405 303.362 200.325C303.362 203.713 304.818 206.621 306.271 209.528C307.726 207.84 308.687 205.413 312.089 206.14C314.505 208.801 316.453 211.228 316.944 214.135C315.959 219.717 314.504 224.558 320.322 227.465V229.165C324.217 230.865 332.944 227.465 332.944 234.254C332.45 236.681 335.36 234.5 336.346 235.954C338.762 234.98 342.164 235.474 345.072 235.474C347.488 240.562 342.164 244.196 340.709 248.804C343.124 251.219 342.164 255.592 341.671 258.486L340.215 259.213C344.085 259.94 348.941 258.746 352.345 260.926L358.656 263.341C361.564 261.654 364.942 261.395 368.837 261.654C371.746 263.835 367.85 267.469 370.292 269.156C373.695 269.156 376.603 269.65 377.071 272.558L377.564 273.518C379.98 269.156 386.784 272.063 389.693 268.924C394.55 268.924 395.51 274.246 397.926 277.154C398.913 284.681 389.693 288.083 392.602 295.584C390.654 299.218 386.784 302.127 383.876 305.526C384.836 306.019 384.342 307.214 384.342 307.941C381.434 309.655 383.876 314.742 379.979 315.211C379.512 318.377 373.694 317.157 375.616 320.557C379.511 325.646 373.694 328.787 373.694 333.407C371.252 336.081 366.396 330.967 366.396 336.081C363.486 336.807 360.578 333.407 358.656 336.315C357.669 339.716 360.578 340.91 360.11 344.311C364.942 343.817 366.397 348.672 368.344 351.58L373.201 356.433C368.344 360.301 362.033 355.94 356.214 358.12C354.759 357.394 356.214 355.472 354.759 354.746C353.305 353.032 350.396 353.032 347.981 352.564C348.448 354.746 344.085 355.471 346.033 358.119C346.033 358.846 346.994 361.027 345.071 361.027C341.176 362.247 341.67 357.653 338.266 359.34C333.903 361.027 337.306 367.569 330.995 366.842C331.955 372.684 321.307 376.552 328.579 381.64C329.539 382.601 329.046 384.547 329.046 386.001C324.682 389.895 316.941 388.442 312.086 386.987C308.19 386.001 310.631 381.146 309.177 378.498C307.723 376.059 303.36 374.371 303.36 370.97C300.449 369.775 298.009 369.025 296.061 366.608C289.283 373.151 281.026 379.459 271.336 379.692C266.973 381.873 264.532 390.622 257.752 386.986C255.09 391.349 247.077 386.986 246.596 393.27C243.441 394.489 244.896 398.617 242.961 400.538C242.233 405.392 242.961 409.519 247.077 412.428C248.778 416.061 243.441 416.061 245.623 419.463C246.117 420.658 245.623 422.37 244.896 422.863C243.441 423.59 242.961 424.318 243.441 425.771C242.233 425.771 241.741 426.497 240.779 427.458C239.558 429.873 235.688 431.092 233.013 432.78C230.351 433.506 228.403 431.585 226.715 429.873C226.22 432.546 224.04 434 221.377 434C217.494 434 218.222 430.599 215.313 429.146C216.52 424.784 212.638 422.863 213.858 418.969C217.013 416.555 222.338 414.842 220.883 409.754C217.494 405.652 218.702 399.578 215.313 394.724C213.131 392.803 209.495 389.896 210.703 385.274C213.858 381.641 210.703 377.279 209.002 373.411C208.275 370.245 206.339 367.338 206.339 363.702C201.002 360.562 200.755 352.306 193.237 351.58C187.9 351.58 186.938 344.804 181.601 345.271C181.108 344.311 179.9 343.584 178.926 342.623C175.056 345.271 170.2 341.897 165.355 343.09C162.2 337.768 168.018 330.499 159.525 327.332V323.958C160.499 324.424 160.98 323.463 161.226 322.971C161.707 319.337 155.161 318.87 157.837 314.741C156.382 313.522 154.681 313.028 155.655 310.614C152.007 303.111 141.098 303.839 138.669 296.311C140.617 294.624 140.617 292.91 141.345 291.457C139.643 288.549 139.163 285.407 139.643 282.267C141.345 281.773 142.306 279.593 143.279 277.879C141.098 276.426 138.435 274.246 136.007 274.972C131.644 274.246 128.488 270.871 124.605 268.924C123.631 267.963 124.125 266.25 124.125 265.056C129.461 263.341 123.398 255.827 129.943 256.801C131.645 254.62 135.28 253.893 137.943 252.193C140.618 251.713 142.8 252.686 145.462 253.413C147.643 256.308 151.527 255.101 153.707 257.527C155.889 257.035 158.565 255.827 161.227 257.035C161.227 252.92 163.162 250.492 166.083 247.584C166.564 245.897 169.226 244.677 171.408 243.716C175.538 244.677 180.382 244.677 183.304 241.769C185.239 242.989 186.94 240.562 189.122 240.562C191.783 240.069 193.965 240.796 195.913 242.016C196.147 237.161 204.639 241.289 206.341 235.474C208.277 231.593 201.004 230.139 201.484 226.739C200.276 222.857 203.186 220.924 204.639 218.263C206.34 217.535 208.276 216.563 210.457 217.042C216.041 215.108 211.677 203.713 220.651 207.84C220.651 209.048 220.158 210.501 220.885 210.748C224.041 210.748 224.525 207.11 226.716 205.894C227.677 202.506 225.496 198.379 228.405 195.717C229.859 195.471 231.079 194.991 232.041 193.77C232.041 191.109 230.586 189.656 228.405 187.955C227.678 189.167 225.742 188.202 224.525 188.683C224.525 185.775 222.833 183.841 222.34 181.167C220.885 180.44 220.158 179.233 220.651 177.533C222.833 175.352 220.651 170.018 225.742 171.227C227.678 169.537 231.079 170.744 233.015 167.836C238.106 164.929 244.897 164.929 248.78 159.595C250.481 159.841 252.416 158.141 254.117 159.595C254.599 162.748 259.209 161.528 259.209 164.442Z" fill="#D0A650"/>
<path d="M297.199 98.6227L290.458 78L283.801 98.6227H262L279.641 111.377L272.901 132L290.458 119.245L308.099 132L301.359 111.377L319 98.6227H297.199Z" fill="white"/>
<path d="M365.199 110.571L358.458 90L351.801 110.571H330L347.641 123.346L340.901 144L358.458 131.226L376.099 144L369.359 123.346L387 110.571H365.199Z" fill="white"/>
<path d="M430.199 134.571L423.542 114L416.801 134.571H395L412.641 147.346L405.901 168L423.542 155.226L441.099 168L434.359 147.346L452 134.571H430.199Z" fill="white"/>
<path d="M227.199 98.6227L220.542 78L213.801 98.6227H192L209.641 111.377L202.901 132L220.542 119.245L238.099 132L231.359 111.377L249 98.6227H227.199Z" fill="white"/>
<path d="M159.199 110.571L152.542 90L145.801 110.571H124L141.641 123.346L134.901 144L152.542 131.226L170.099 144L163.359 123.346L181 110.571H159.199Z" fill="white"/>
<path d="M94.1985 134.571L87.4584 114L80.8015 134.571H59L76.6409 147.346L69.9007 168L87.4584 155.226L105.099 168L98.3591 147.346L116 134.571H94.1985Z" fill="white"/>
</g>
<defs>
<clipPath id="clip0_57741_82325">
<rect width="512" height="512" fill="white"/>
</clipPath>
</defs>
</svg>
